<svg width="276" height="55" viewBox="0 0 276 55" fill="none" xmlns="http://www.w3.org/2000/svg">
<path d="M91.6381 23.9844H86.0387C85.9364 23.2599 85.7276 22.6165 85.4123 22.054C85.0969 21.483 84.6921 20.9972 84.1978 20.5966C83.7035 20.196 83.1325 19.8892 82.4847 19.6761C81.8455 19.4631 81.1509 19.3565 80.4009 19.3565C79.0458 19.3565 77.8654 19.6932 76.8597 20.3665C75.854 21.0312 75.0742 22.0028 74.5202 23.2812C73.9663 24.5511 73.6893 26.0937 73.6893 27.9091C73.6893 29.7756 73.9663 31.3437 74.5202 32.6136C75.0827 33.8835 75.8668 34.8423 76.8725 35.4901C77.8782 36.1378 79.0415 36.4616 80.3626 36.4616C81.104 36.4616 81.7901 36.3636 82.4208 36.1676C83.06 35.9716 83.6268 35.6861 84.1211 35.3111C84.6154 34.9276 85.0245 34.4631 85.3484 33.9176C85.6808 33.3722 85.9109 32.75 86.0387 32.0511L91.6381 32.0767C91.4933 33.2784 91.131 34.4375 90.5515 35.554C89.9805 36.6619 89.2092 37.6548 88.2376 38.5327C87.2745 39.402 86.1239 40.0923 84.7859 40.6037C83.4563 41.1065 81.9521 41.358 80.2731 41.358C77.9379 41.358 75.8498 40.8295 74.0089 39.7727C72.1765 38.7159 70.7276 37.1861 69.6623 35.1832C68.6055 33.1804 68.0771 30.7557 68.0771 27.9091C68.0771 25.054 68.614 22.625 69.6879 20.6222C70.7617 18.6193 72.2191 17.0937 74.06 16.0455C75.9009 14.9886 77.9719 14.4602 80.2731 14.4602C81.7901 14.4602 83.1964 14.6733 84.4918 15.0994C85.7958 15.5256 86.9506 16.1477 87.9563 16.9659C88.962 17.7756 89.7802 18.7685 90.4109 19.9446C91.0501 21.1207 91.4592 22.4673 91.6381 23.9844ZM104.377 41.3835C102.392 41.3835 100.674 40.9616 99.2255 40.1179C97.7852 39.2656 96.6729 38.081 95.8888 36.5639C95.1048 35.0384 94.7127 33.2699 94.7127 31.2585C94.7127 29.2301 95.1048 27.4574 95.8888 25.9403C96.6729 24.4148 97.7852 23.2301 99.2255 22.3864C100.674 21.5341 102.392 21.108 104.377 21.108C106.363 21.108 108.076 21.5341 109.517 22.3864C110.966 23.2301 112.082 24.4148 112.866 25.9403C113.65 27.4574 114.042 29.2301 114.042 31.2585C114.042 33.2699 113.65 35.0384 112.866 36.5639C112.082 38.081 110.966 39.2656 109.517 40.1179C108.076 40.9616 106.363 41.3835 104.377 41.3835ZM104.403 37.1648C105.306 37.1648 106.061 36.9091 106.666 36.3977C107.271 35.8778 107.727 35.1705 108.034 34.2756C108.349 33.3807 108.507 32.3622 108.507 31.2202C108.507 30.0781 108.349 29.0597 108.034 28.1648C107.727 27.2699 107.271 26.5625 106.666 26.0426C106.061 25.5227 105.306 25.2628 104.403 25.2628C103.491 25.2628 102.724 25.5227 102.102 26.0426C101.488 26.5625 101.024 27.2699 100.708 28.1648C100.402 29.0597 100.248 30.0781 100.248 31.2202C100.248 32.3622 100.402 33.3807 100.708 34.2756C101.024 35.1705 101.488 35.8778 102.102 36.3977C102.724 36.9091 103.491 37.1648 104.403 37.1648ZM130.176 32.6392V21.3636H135.622V41H130.393V37.4332H130.189C129.745 38.5838 129.008 39.5085 127.977 40.2074C126.954 40.9062 125.706 41.2557 124.231 41.2557C122.919 41.2557 121.764 40.9574 120.767 40.3608C119.77 39.7642 118.99 38.9162 118.427 37.8168C117.873 36.7173 117.592 35.4006 117.583 33.8665V21.3636H123.029V32.8949C123.038 34.054 123.349 34.9702 123.963 35.6435C124.576 36.3168 125.399 36.6534 126.43 36.6534C127.086 36.6534 127.7 36.5043 128.271 36.206C128.842 35.8991 129.302 35.4474 129.652 34.8509C130.01 34.2543 130.184 33.517 130.176 32.6392ZM139.978 41V21.3636H145.258V24.7898H145.462C145.82 23.571 146.421 22.6506 147.265 22.0284C148.109 21.3977 149.08 21.0824 150.18 21.0824C150.452 21.0824 150.746 21.0994 151.062 21.1335C151.377 21.1676 151.654 21.2145 151.893 21.2741V26.1065C151.637 26.0298 151.283 25.9616 150.832 25.902C150.38 25.8423 149.967 25.8125 149.592 25.8125C148.79 25.8125 148.075 25.9872 147.444 26.3366C146.822 26.6776 146.327 27.1548 145.961 27.7685C145.603 28.3821 145.424 29.0895 145.424 29.8906V41H139.978ZM171.047 26.9631L166.061 27.2699C165.975 26.8437 165.792 26.4602 165.511 26.1193C165.23 25.7699 164.859 25.4929 164.399 25.2884C163.947 25.0753 163.406 24.9688 162.775 24.9688C161.931 24.9688 161.22 25.1477 160.64 25.5057C160.061 25.8551 159.771 26.3239 159.771 26.9119C159.771 27.3807 159.958 27.777 160.333 28.1009C160.708 28.4247 161.352 28.6847 162.264 28.8807L165.818 29.5966C167.727 29.9886 169.15 30.6193 170.088 31.4886C171.025 32.358 171.494 33.5 171.494 34.9148C171.494 36.2017 171.115 37.331 170.356 38.3026C169.606 39.2741 168.575 40.0327 167.262 40.5781C165.958 41.1151 164.454 41.3835 162.75 41.3835C160.15 41.3835 158.079 40.8423 156.537 39.7599C155.002 38.669 154.103 37.1861 153.839 35.3111L159.196 35.0298C159.358 35.8224 159.75 36.4276 160.372 36.8452C160.994 37.2543 161.791 37.4588 162.762 37.4588C163.717 37.4588 164.484 37.2756 165.064 36.9091C165.652 36.5341 165.95 36.0526 165.958 35.4645C165.95 34.9702 165.741 34.5653 165.332 34.25C164.923 33.9261 164.292 33.679 163.44 33.5085L160.039 32.831C158.122 32.4474 156.694 31.7827 155.757 30.8366C154.828 29.8906 154.363 28.6847 154.363 27.2188C154.363 25.9574 154.704 24.8707 155.386 23.9588C156.076 23.0469 157.044 22.3438 158.288 21.8494C159.541 21.3551 161.007 21.108 162.686 21.108C165.166 21.108 167.118 21.6321 168.541 22.6804C169.973 23.7287 170.808 25.1562 171.047 26.9631ZM183.872 41.3835C181.852 41.3835 180.114 40.9744 178.656 40.1562C177.207 39.3295 176.091 38.1619 175.307 36.6534C174.523 35.1364 174.131 33.3423 174.131 31.2713C174.131 29.2514 174.523 27.4787 175.307 25.9531C176.091 24.4276 177.195 23.2386 178.618 22.3864C180.05 21.5341 181.729 21.108 183.655 21.108C184.95 21.108 186.156 21.3168 187.273 21.7344C188.398 22.1435 189.378 22.7614 190.213 23.5881C191.057 24.4148 191.713 25.4545 192.182 26.7074C192.651 27.9517 192.885 29.4091 192.885 31.0795V32.5753H176.304V29.2003H187.759C187.759 28.4162 187.588 27.7216 187.247 27.1165C186.906 26.5114 186.433 26.0384 185.828 25.6974C185.232 25.348 184.537 25.1733 183.744 25.1733C182.918 25.1733 182.185 25.3651 181.545 25.7486C180.915 26.1236 180.42 26.6307 180.062 27.2699C179.705 27.9006 179.521 28.6037 179.513 29.3793V32.5881C179.513 33.5597 179.692 34.3991 180.05 35.1065C180.416 35.8139 180.932 36.3594 181.597 36.7429C182.261 37.1264 183.05 37.3182 183.962 37.3182C184.567 37.3182 185.121 37.233 185.624 37.0625C186.126 36.892 186.557 36.6364 186.915 36.2955C187.273 35.9545 187.545 35.5369 187.733 35.0426L192.77 35.375C192.514 36.5852 191.99 37.642 191.197 38.5455C190.413 39.4403 189.399 40.1392 188.155 40.642C186.919 41.1364 185.491 41.3835 183.872 41.3835ZM204.873 41V14.8182H210.409V25.6207H221.646V14.8182H227.169V41H221.646V30.1847H210.409V41H204.873ZM244.223 32.6392V21.3636H249.669V41H244.44V37.4332H244.235C243.792 38.5838 243.055 39.5085 242.024 40.2074C241.001 40.9062 239.752 41.2557 238.278 41.2557C236.966 41.2557 235.811 40.9574 234.814 40.3608C233.816 39.7642 233.037 38.9162 232.474 37.8168C231.92 36.7173 231.639 35.4006 231.63 33.8665V21.3636H237.076V32.8949C237.085 34.054 237.396 34.9702 238.01 35.6435C238.623 36.3168 239.446 36.6534 240.477 36.6534C241.133 36.6534 241.747 36.5043 242.318 36.206C242.889 35.8991 243.349 35.4474 243.699 34.8509C244.056 34.2543 244.231 33.517 244.223 32.6392ZM254.127 41V14.8182H259.573V24.6619H259.739C259.978 24.1335 260.323 23.5966 260.775 23.0511C261.235 22.4972 261.832 22.0369 262.565 21.6705C263.306 21.2955 264.227 21.108 265.326 21.108C266.758 21.108 268.079 21.483 269.289 22.233C270.499 22.9744 271.467 24.0952 272.191 25.5952C272.915 27.0866 273.278 28.9574 273.278 31.2074C273.278 33.3977 272.924 35.2472 272.217 36.7557C271.518 38.2557 270.563 39.3935 269.353 40.169C268.151 40.9361 266.805 41.3196 265.313 41.3196C264.256 41.3196 263.357 41.1449 262.616 40.7955C261.883 40.446 261.282 40.0071 260.813 39.4787C260.344 38.9418 259.987 38.4006 259.739 37.8551H259.496V41H254.127ZM259.458 31.1818C259.458 32.3494 259.62 33.3679 259.944 34.2372C260.268 35.1065 260.737 35.7841 261.35 36.2699C261.964 36.7472 262.71 36.9858 263.587 36.9858C264.474 36.9858 265.224 36.7429 265.837 36.2571C266.451 35.7628 266.915 35.081 267.231 34.2116C267.555 33.3338 267.717 32.3239 267.717 31.1818C267.717 30.0483 267.559 29.0511 267.244 28.1903C266.928 27.3295 266.464 26.6562 265.85 26.1705C265.237 25.6847 264.482 25.4418 263.587 25.4418C262.701 25.4418 261.951 25.6761 261.337 26.1449C260.732 26.6136 260.268 27.2784 259.944 28.1392C259.62 29 259.458 30.0142 259.458 31.1818Z" fill="#2F68FF"/>
<path d="M36.666 41.25L50.416 27.5L36.666 13.75" stroke="#2F68FF" stroke-width="5" stroke-linecap="round" stroke-linejoin="round"/>
<path d="M18.334 13.75L4.58398 27.5L18.334 41.25" stroke="#2F68FF" stroke-width="5" stroke-linecap="round" stroke-linejoin="round"/>
</svg>
